<svg width="266" height="265" viewBox="0 0 266 265" fill="none" xmlns="http://www.w3.org/2000/svg">
<circle cx="132.951" cy="132.731" r="132.186" fill="#EDF1FB"/>
<g opacity="0.223749">
<rect x="131.922" y="24.1788" width="2.88614" height="5.05075" rx="1" fill="#D81F72"/>
<rect x="131.922" y="240.64" width="2.88614" height="5.05075" rx="1" fill="#D81F72"/>
</g>
<g opacity="0.223749">
<rect x="151.177" y="25.6108" width="2.88614" height="5.05075" rx="1" transform="rotate(10 151.177 25.6108)" fill="#D81F72"/>
<rect x="113.589" y="238.783" width="2.88614" height="5.05075" rx="1" transform="rotate(10 113.589 238.783)" fill="#D81F72"/>
</g>
<g opacity="0.223749">
<rect x="169.889" y="30.3646" width="2.88614" height="5.05075" rx="1" transform="rotate(20 169.889 30.3646)" fill="#D81F72"/>
<rect x="95.8545" y="233.771" width="2.88614" height="5.05075" rx="1" transform="rotate(20 95.8545 233.771)" fill="#D81F72"/>
</g>
<g opacity="0.223749">
<rect x="187.493" y="38.2958" width="2.88614" height="5.05075" rx="1" transform="rotate(30 187.493 38.2958)" fill="#D81F72"/>
<rect x="79.2627" y="225.756" width="2.88614" height="5.05075" rx="1" transform="rotate(30 79.2627 225.756)" fill="#D81F72"/>
</g>
<g opacity="0.223749">
<rect x="203.452" y="49.1631" width="2.88614" height="5.05075" rx="1" transform="rotate(40 203.452 49.1631)" fill="#D81F72"/>
<rect x="64.3135" y="214.982" width="2.88614" height="5.05075" rx="1" transform="rotate(40 64.3135 214.982)" fill="#D81F72"/>
</g>
<g opacity="0.223749">
<rect x="217.281" y="62.6367" width="2.88614" height="5.05075" rx="1" transform="rotate(50 217.281 62.6367)" fill="#D81F72"/>
<rect x="51.4629" y="201.775" width="2.88614" height="5.05075" rx="1" transform="rotate(50 51.4629 201.775)" fill="#D81F72"/>
</g>
<g opacity="0.223749">
<rect x="228.561" y="78.3069" width="2.88614" height="5.05075" rx="1" transform="rotate(60 228.561 78.3069)" fill="#D81F72"/>
<rect x="41.0996" y="186.537" width="2.88614" height="5.05075" rx="1" transform="rotate(60 41.0996 186.537)" fill="#D81F72"/>
</g>
<g opacity="0.223749">
<rect x="236.947" y="95.6979" width="2.88614" height="5.05075" rx="1" transform="rotate(70 236.947 95.6979)" fill="#D81F72"/>
<rect x="33.541" y="169.732" width="2.88614" height="5.05075" rx="1" transform="rotate(70 33.541 169.732)" fill="#D81F72"/>
</g>
<g opacity="0.223749">
<rect x="242.188" y="114.281" width="2.88614" height="5.05075" rx="1" transform="rotate(80 242.188 114.281)" fill="#D81F72"/>
<rect x="29.0156" y="151.869" width="2.88614" height="5.05075" rx="1" transform="rotate(80 29.0156 151.869)" fill="#D81F72"/>
</g>
<g opacity="0.223749">
<rect x="244.12" y="133.491" width="2.88614" height="5.05075" rx="1" transform="rotate(90 244.12 133.491)" fill="#D81F72"/>
<rect x="27.6592" y="133.491" width="2.88614" height="5.05075" rx="1" transform="rotate(90 27.6592 133.491)" fill="#D81F72"/>
</g>
<g opacity="0.223749">
<rect x="242.688" y="152.746" width="2.88614" height="5.05075" rx="1" transform="rotate(100 242.688 152.746)" fill="#D81F72"/>
<rect x="29.5166" y="115.158" width="2.88614" height="5.05075" rx="1" transform="rotate(100 29.5166 115.158)" fill="#D81F72"/>
</g>
<g opacity="0.223749">
<rect x="237.935" y="171.459" width="2.88614" height="5.05075" rx="1" transform="rotate(110 237.935 171.459)" fill="#D81F72"/>
<rect x="34.5283" y="97.4252" width="2.88614" height="5.05075" rx="1" transform="rotate(110 34.5283 97.4252)" fill="#D81F72"/>
</g>
<g opacity="0.223749">
<rect x="230.004" y="189.063" width="2.88614" height="5.05075" rx="1" transform="rotate(120 230.004 189.063)" fill="#D81F72"/>
<rect x="42.543" y="80.8324" width="2.88614" height="5.05075" rx="1" transform="rotate(120 42.543 80.8324)" fill="#D81F72"/>
</g>
<g opacity="0.223749">
<rect x="219.136" y="205.022" width="2.88614" height="5.05075" rx="1" transform="rotate(130 219.136 205.022)" fill="#D81F72"/>
<rect x="53.3174" y="65.8833" width="2.88614" height="5.05075" rx="1" transform="rotate(130 53.3174 65.8833)" fill="#D81F72"/>
</g>
<g opacity="0.223749">
<rect x="205.662" y="218.851" width="2.88614" height="5.05075" rx="1" transform="rotate(140 205.662 218.851)" fill="#D81F72"/>
<rect x="66.5234" y="53.0323" width="2.88614" height="5.05075" rx="1" transform="rotate(140 66.5234 53.0323)" fill="#D81F72"/>
</g>
<g opacity="0.223749">
<rect x="189.993" y="230.13" width="2.88614" height="5.05075" rx="1" transform="rotate(150 189.993 230.13)" fill="#D81F72"/>
<rect x="81.7627" y="42.6699" width="2.88614" height="5.05075" rx="1" transform="rotate(150 81.7627 42.6699)" fill="#D81F72"/>
</g>
<g opacity="0.223749">
<rect x="172.602" y="238.517" width="2.88614" height="5.05075" rx="1" transform="rotate(160 172.602 238.517)" fill="#D81F72"/>
<rect x="98.5674" y="35.1108" width="2.88614" height="5.05075" rx="1" transform="rotate(160 98.5674 35.1108)" fill="#D81F72"/>
</g>
<g opacity="0.223749">
<rect x="154.019" y="243.757" width="2.88614" height="5.05075" rx="1" transform="rotate(170 154.019 243.757)" fill="#D81F72"/>
<rect x="116.431" y="30.585" width="2.88614" height="5.05075" rx="1" transform="rotate(170 116.431 30.585)" fill="#D81F72"/>
</g>
</svg>
