<svg width="30" height="19" viewBox="0 0 30 19" fill="none" xmlns="http://www.w3.org/2000/svg">
<path fill-rule="evenodd" clip-rule="evenodd" d="M23.9801 18.6919H15.2397C15.2312 18.6919 15.2228 18.6919 15.2143 18.6919C15.2058 18.6919 15.1973 18.6919 15.1889 18.6919H5.3636C5.36145 18.6919 5.3593 18.6919 5.35714 18.6919C5.35499 18.6919 5.35283 18.6919 5.35068 18.6919H5.14286V18.6877C2.28353 18.5752 0 16.2209 0 13.3332C0 10.3737 2.39847 7.97453 5.35714 7.97453C5.6137 7.97453 5.86605 7.99257 6.11298 8.02745C6.80727 3.62476 10.6177 0.258057 15.2143 0.258057C19.3322 0.258057 22.8192 2.96014 24 6.68847H24C27.3137 6.68847 30 9.37554 30 12.6902C30 15.8607 27.5423 18.457 24.4286 18.6768V18.6919H24.0199C24.0133 18.6919 24.0066 18.6919 24 18.6919C23.9934 18.6919 23.9867 18.6919 23.9801 18.6919Z" fill="#A1B0CA"/>
</svg>
