<svg width="31" height="24" viewBox="0 0 31 24" fill="none" xmlns="http://www.w3.org/2000/svg">
<path d="M12.5513 20.0927L9.97991 22.6641" stroke="#A1B0CA" stroke-linecap="round"/>
<path d="M15.5513 20.0927L12.9799 22.6641" stroke="#A1B0CA" stroke-linecap="round"/>
<path d="M18.5513 20.0927L15.9799 22.6641" stroke="#A1B0CA" stroke-linecap="round"/>
<path fill-rule="evenodd" clip-rule="evenodd" d="M5.90848 18.4296C3.04915 18.3171 0.765625 15.9629 0.765625 13.0752C0.765625 10.1156 3.1641 7.71647 6.12277 7.71647C6.37933 7.71647 6.63167 7.73451 6.87861 7.76939C7.5729 3.36671 11.3833 0 15.9799 0C20.0979 0 23.5849 2.70208 24.7656 6.43042H24.7656C28.0793 6.43042 30.7656 9.11748 30.7656 12.4321C30.7656 15.6027 28.3079 18.199 25.1942 18.4188V18.4339H5.90848V18.4296Z" fill="#A1B0CA"/>
</svg>
