<svg width="24" height="24" viewBox="0 0 24 24" fill="none" xmlns="http://www.w3.org/2000/svg">
<path fill-rule="evenodd" clip-rule="evenodd" d="M20.5412 14.5991L20.0795 14.8657C19.1509 15.4018 18.5789 16.3926 18.5788 17.4648V17.998C18.5788 19.0702 18.0068 20.061 17.0782 20.5971C16.1496 21.1332 15.0056 21.1332 14.077 20.5971L13.6152 20.3305C12.6867 19.7944 11.5426 19.7944 10.614 20.3305L10.1522 20.5971C9.22365 21.1332 8.07963 21.1332 7.15107 20.5971C6.22251 20.061 5.65047 19.0702 5.65043 17.998V17.4648C5.6504 16.3926 5.07837 15.4018 4.1498 14.8657L3.68806 14.5991C2.75951 14.063 2.1875 13.0722 2.1875 12C2.1875 10.9278 2.75951 9.93702 3.68806 9.40089L4.14984 9.13429C5.07841 8.59818 5.65044 7.60742 5.65047 6.5352V6.00198C5.65051 4.92978 6.22255 3.93904 7.15111 3.40294C8.07967 2.86684 9.22369 2.86683 10.1523 3.4029L10.6141 3.66952C11.5426 4.20563 12.6867 4.20563 13.6153 3.66952L14.0771 3.4029C15.0057 2.86683 16.1497 2.86684 17.0782 3.40294C18.0068 3.93904 18.5788 4.92978 18.5789 6.00198V6.5352C18.5789 7.60742 19.1509 8.59818 20.0795 9.13429L20.5413 9.40089C21.4698 9.93703 22.0418 10.9278 22.0418 12C22.0418 13.0722 21.4698 14.063 20.5412 14.5991Z" stroke="#D81F72" stroke-width="1.5" stroke-linecap="round" stroke-linejoin="round"/>
<circle cx="12.0003" cy="12" r="3.00125" stroke="#D81F72" stroke-width="1.5" stroke-linecap="round" stroke-linejoin="round"/>
</svg>
