<svg width="126" height="126" viewBox="0 0 126 126" fill="none" xmlns="http://www.w3.org/2000/svg">
<path d="M68.9326 10.815C68.1881 10.7173 67.4313 10.7805 66.7134 11.0003C65.9954 11.22 65.3329 11.5912 64.7706 12.0888C64.2083 12.5864 63.7593 13.1988 63.4539 13.8848C63.1485 14.5707 62.9937 15.3141 63.0001 16.065V26.25C65.7849 26.25 68.4556 27.3562 70.4247 29.3253C72.3938 31.2945 73.5001 33.9652 73.5001 36.75V63C73.5001 65.7847 72.3938 68.4554 70.4247 70.4246C68.4556 72.3937 65.7849 73.5 63.0001 73.5H42.0001C39.2153 73.5 36.5446 72.3937 34.5755 70.4246C32.6063 68.4554 31.5001 65.7847 31.5001 63H16.0651C15.3143 62.9936 14.5708 63.1483 13.8849 63.4538C13.199 63.7592 12.5865 64.2082 12.0889 64.7705C11.5913 65.3328 11.2201 65.9953 11.0004 66.7133C10.7806 67.4312 10.7174 68.188 10.8151 68.9325C12.2965 82.0058 18.6328 94.0464 28.5693 102.67C38.5059 111.294 51.3183 115.873 64.4701 115.5C77.8343 114.969 90.5078 109.422 99.9652 99.965C109.423 90.5077 114.969 77.8342 115.5 64.47C115.873 51.3182 111.295 38.5057 102.671 28.5692C94.0465 18.6326 82.006 12.2964 68.9326 10.815Z" fill="#D81F72"/>
<path d="M63 68.25H42C40.6076 68.25 39.2723 67.6969 38.2877 66.7123C37.3031 65.7277 36.75 64.3924 36.75 63C36.75 61.6076 37.3031 60.2723 38.2877 59.2877C39.2723 58.3031 40.6076 57.75 42 57.75H57.75V36.75C57.75 35.3576 58.3031 34.0223 59.2877 33.0377C60.2723 32.0531 61.6076 31.5 63 31.5C64.3924 31.5 65.7277 32.0531 66.7123 33.0377C67.6969 34.0223 68.25 35.3576 68.25 36.75V63C68.25 64.3924 67.6969 65.7277 66.7123 66.7123C65.7277 67.6969 64.3924 68.25 63 68.25Z" fill="#2CA9BC"/>
</svg>
