<svg width="25" height="23" viewBox="0 0 25 23" fill="none" xmlns="http://www.w3.org/2000/svg">
<path fill-rule="evenodd" clip-rule="evenodd" d="M18.3178 11.6458L12.6143 17.3603H16.2546L13.6331 22.4073L20.3702 16.2065H16.0128L18.3178 11.6458Z" fill="#A1B0CA"/>
<path fill-rule="evenodd" clip-rule="evenodd" d="M17.8698 15.0957H19.5977L19.6216 15.0957L19.6455 15.0957H19.9718V15.0834C22.5175 14.9035 24.527 12.7773 24.527 10.1809C24.527 7.46645 22.3308 5.26598 19.6216 5.26598C18.6563 2.21279 15.8054 0 12.4387 0C8.68068 0 5.56536 2.75707 4.99776 6.36252C4.79588 6.33395 4.58957 6.31918 4.37982 6.31918C1.96091 6.31918 0 8.28388 0 10.7075C0 13.0722 1.86682 15 4.2044 15.0923V15.0957H4.35576L4.37982 15.0958L4.40389 15.0957H12.4207L12.4387 15.0957L12.4567 15.0957H13.728L19.6217 9.47867L17.8698 15.0957Z" fill="#A1B0CA"/>
<path d="M3.57919 18.5335C3.44235 18.6706 3.44235 18.8929 3.57919 19.03C3.71602 19.1671 3.93787 19.1671 4.07471 19.03L6.17702 16.9236C6.31386 16.7865 6.31386 16.5643 6.17702 16.4272C6.04019 16.2901 5.81834 16.2901 5.6815 16.4272L3.57919 18.5335Z" fill="#A1B0CA"/>
<path d="M6.38192 18.5335C6.24509 18.6706 6.24509 18.8929 6.38192 19.03C6.51876 19.1671 6.74061 19.1671 6.87744 19.03L8.97976 16.9236C9.11659 16.7865 9.11659 16.5643 8.97976 16.4272C8.84292 16.2901 8.62107 16.2901 8.48424 16.4272L6.38192 18.5335Z" fill="#A1B0CA"/>
<path d="M9.18563 18.5335C9.0488 18.6706 9.0488 18.8929 9.18563 19.03C9.32247 19.1671 9.54432 19.1671 9.68115 19.03L11.7835 16.9236C11.9203 16.7865 11.9203 16.5643 11.7835 16.4272C11.6466 16.2901 11.4248 16.2901 11.2879 16.4272L9.18563 18.5335Z" fill="#A1B0CA"/>
</svg>
